# xmcd
#
# Track frame offsets:
#	150
#	16350
#	36300
#	53775
#	72000
#	82875
#	98700
#	113175
#	125475
#	142275
#	159525
#	182100
#	197625
#	209625
#	222975
#	234300
#	253425
#	270075
#	283425
#	301800
#	319425
#	329175
#
# Disc length: 4712 seconds
#
# Revision: 1
# Processed by: cddbd v1.5.2PL0 Copyright (c) Steve Scherf et al.
# Submitted via: audiograbber 1.83.01
#
DISCID=59126616
DTITLE=Garth Brooks - RS610A
DYEAR=2004
DGENRE=Country
TTITLE0=Two Pina Coladas
TTITLE1=When You Come Back To Me
TTITLE2=Standing Outside The Fire
TTITLE3=One Night A Day
TTITLE4=Longneck Bottle
TTITLE5=Squeeze Me In
TTITLE6=Night I Called The Old Man Out, The
TTITLE7=She's Gonna Make It
TTITLE8=How You Ever Gonna Know
TTITLE9=You Move Me
TTITLE10=That Ol' Wind
TTITLE11=In Another's Eyes
TTITLE12=Fever, The
TTITLE13=Do What You Gotta Do
TTITLE14=It's Midnight Cinderella
TTITLE15=Beaches Of Cheyenne, The
TTITLE16=Tearin' It Up And Burnin' It Down
TTITLE17=She's Every Woman
TTITLE18=It's Your Song
TTITLE19=To Make You Feel My Love
TTITLE20=Burnin' The Roadhouse Down
TTITLE21=Friends In Low Places (Live)
EXTD=
EXTT0=
EXTT1=
EXTT2=
EXTT3=
EXTT4=
EXTT5=
EXTT6=
EXTT7=
EXTT8=
EXTT9=
EXTT10=
EXTT11=
EXTT12=
EXTT13=
EXTT14=
EXTT15=
EXTT16=
EXTT17=
EXTT18=
EXTT19=
EXTT20=
EXTT21=
PLAYORDER=
